<?xml version="1.0" encoding="UTF-8" standalone="no"?>
<svg
   xmlns:dc="http://purl.org/dc/elements/1.1/"
   xmlns:cc="http://creativecommons.org/ns#"
   xmlns:rdf="http://www.w3.org/1999/02/22-rdf-syntax-ns#"
   xmlns:svg="http://www.w3.org/2000/svg"
   xmlns="http://www.w3.org/2000/svg"
   xmlns:sodipodi="http://sodipodi.sourceforge.net/DTD/sodipodi-0.dtd"
   xmlns:inkscape="http://www.inkscape.org/namespaces/inkscape"
   width="439.55426"
   height="563.0614"
   overflow="hidden"
   version="1.1"
   id="svg111"
   sodipodi:docname="mind-map.svg"
   style="overflow:hidden"
   inkscape:version="0.92.5 (2060ec1f9f, 2020-04-08)">
  <metadata
     id="metadata115">
    <rdf:RDF>
      <cc:Work
         rdf:about="">
        <dc:format>image/svg+xml</dc:format>
        <dc:type
           rdf:resource="http://purl.org/dc/dcmitype/StillImage" />
      </cc:Work>
    </rdf:RDF>
  </metadata>
  <sodipodi:namedview
     pagecolor="#ffffff"
     bordercolor="#666666"
     borderopacity="1"
     objecttolerance="10"
     gridtolerance="10"
     guidetolerance="10"
     inkscape:pageopacity="0"
     inkscape:pageshadow="2"
     inkscape:window-width="1842"
     inkscape:window-height="1051"
     id="namedview113"
     showgrid="false"
     inkscape:zoom="1.3906433"
     inkscape:cx="198.30936"
     inkscape:cy="310.54773"
     inkscape:window-x="69"
     inkscape:window-y="-9"
     inkscape:window-maximized="1"
     inkscape:current-layer="g109" />
  <defs
     id="defs5">
    <clipPath
       id="clip0">
      <path
         d="M 0,0 H 720 V 960 H 0 Z"
         id="path2"
         inkscape:connector-curvature="0"
         style="clip-rule:evenodd;fill-rule:evenodd" />
    </clipPath>
  </defs>
  <g
     clip-path="url(#clip0)"
     id="g109"
     transform="translate(-146.6947,-207.09839)">
    <rect
       x="146.6947"
       y="207.09839"
       width="439.55426"
       height="563.0614"
       id="rect7"
       style="fill:#ffffff;stroke-width:0.59838718" />
    <rect
       x="162.5"
       y="386.5"
       width="132"
       height="29"
       stroke-miterlimit="8"
       id="rect9"
       style="fill:#ffffff;stroke:#000000;stroke-width:1.33333004;stroke-miterlimit:8" />
    <text
       font-weight="400"
       transform="translate(202.352,405)"
       id="text11"
       style="font-weight:400;font-family:'Segoe UI', 'Segoe UI_MSFontService', sans-serif">Customer</text>
    <rect
       x="317.5"
       y="387.5"
       width="131"
       height="30"
       stroke-miterlimit="8"
       id="rect13"
       style="fill:#ffffff;stroke:#000000;stroke-width:1.33333004;stroke-miterlimit:8" />
    <text
       font-weight="400"
       transform="translate(370.38,407)"
       id="text15"
       style="font-weight:400;font-family:'Segoe UI', 'Segoe UI_MSFontService', sans-serif">Tour</text>
    <rect
       x="302.5"
       y="551.5"
       width="132"
       height="29"
       stroke-miterlimit="8"
       id="rect17"
       style="fill:#ffffff;stroke:#000000;stroke-width:1.33333004;stroke-miterlimit:8" />
    <text
       font-weight="400"
       transform="translate(317.077,570)"
       id="text19"
       style="font-weight:400;font-family:'Segoe UI', 'Segoe UI_MSFontService', sans-serif">TransportCompany</text>
    <rect
       x="170.5"
       y="671.5"
       width="132"
       height="30"
       stroke-miterlimit="8"
       id="rect21"
       style="fill:#ffffff;stroke:#000000;stroke-width:1.33333004;stroke-miterlimit:8" />
    <text
       font-weight="400"
       transform="translate(188.695,691)"
       id="text23"
       style="font-weight:400;font-family:'Segoe UI', 'Segoe UI_MSFontService', sans-serif">AirplaneCompany</text>
    <rect
       x="306.5"
       y="671.5"
       width="132"
       height="30"
       stroke-miterlimit="8"
       id="rect25"
       style="fill:#ffffff;stroke:#000000;stroke-width:1.33333004;stroke-miterlimit:8" />
    <text
       font-weight="400"
       transform="translate(336.917,691)"
       id="text27"
       style="font-weight:400;font-family:'Segoe UI', 'Segoe UI_MSFontService', sans-serif">RailCompany</text>
    <rect
       x="443.5"
       y="671.5"
       width="131"
       height="30"
       stroke-miterlimit="8"
       id="rect29"
       style="fill:#ffffff;stroke:#000000;stroke-width:1.33333004;stroke-miterlimit:8" />
    <text
       font-weight="400"
       transform="translate(473.848,691)"
       id="text31"
       style="font-weight:400;font-family:'Segoe UI', 'Segoe UI_MSFontService', sans-serif">BusCompany</text>
    <path
       d="M 0.242133,-0.970243 129.579,31.3069 129.095,33.2474 -0.242133,0.970243 Z M 129.012,28.0733 l 6.793,5.818 -8.73,1.9439 z"
       transform="matrix(-1,-8.74228e-8,-8.74228e-8,1,368.805,627)"
       id="path33"
       inkscape:connector-curvature="0" />
    <path
       d="m 369,627 v 26.609 h -2 V 627 Z m 3,25.275 -4,8 -4,-8 z"
       id="path35"
       inkscape:connector-curvature="0" />
    <path
       d="m 368.236,626.028 130.37,31.7 -0.473,1.944 -130.369,-31.7 z m 129.783,28.47 6.828,5.777 -8.718,1.997 z"
       id="path37"
       inkscape:connector-curvature="0" />
    <text
       font-weight="300"
       transform="translate(651.603,294)"
       id="text41"
       style="font-weight:300;font-family:'Segoe UI', 'Segoe UI_MSFontService', sans-serif;fill:#ffffff">Travel <tspan
   x="0"
   y="14"
   id="tspan39">Agency</tspan>
</text>
    <path
       d="m 520.5,724.5 c 0,2.762 -0.373,5 -0.833,5 H 373.333 c -0.46,0 -0.833,2.239 -0.833,5 0,-2.761 -0.373,-5 -0.833,-5 H 225.333 c -0.46,0 -0.833,-2.238 -0.833,-5"
       stroke-miterlimit="8"
       id="path43"
       inkscape:connector-curvature="0"
       style="fill:none;fill-rule:evenodd;stroke:#000000;stroke-width:0.66666698;stroke-miterlimit:8" />
    <text
       font-weight="400"
       font-size="9"
       transform="translate(253.935,753)"
       id="text45"
       style="font-weight:400;font-size:9px;font-family:'Segoe UI', 'Segoe UI_MSFontService', sans-serif">These classes have variables that are characteristic to them</text>
    <rect
       x="269.5"
       y="217.5"
       width="148"
       height="29"
       stroke-miterlimit="8"
       id="rect47"
       style="fill:#ffffff;stroke:#000000;stroke-width:1.33333004;stroke-miterlimit:8" />
    <text
       font-weight="400"
       transform="translate(307.601,236)"
       id="text49"
       style="font-weight:400;font-family:'Segoe UI', 'Segoe UI_MSFontService', sans-serif">TravelAgency</text>
    <rect
       x="269.5"
       y="245.5"
       width="148"
       height="54"
       stroke-miterlimit="8"
       id="rect51"
       style="fill:#ffffff;stroke:#000000;stroke-width:1.33333004;stroke-miterlimit:8" />
    <text
       font-weight="400"
       font-size="9"
       transform="translate(278.936,259)"
       id="text67"
       style="font-weight:400;font-size:9px;font-family:'Segoe UI', 'Segoe UI_MSFontService', sans-serif">calculateProfit<tspan
   x="56.333302"
   y="0"
   id="tspan53">(),</tspan>
<tspan
   x="0"
   y="11"
   id="tspan55">printToursBelowPrice</tspan>
(),<tspan
   x="0"
   y="22"
   id="tspan57">list</tspan>
<tspan
   x="11.1667"
   y="22"
   id="tspan59">&lt;Tour*&gt;</tspan>
<tspan
   x="48.333302"
   y="22"
   id="tspan61">tours</tspan>
<tspan
   x="0"
   y="32"
   id="tspan63">vector&lt;Customer*&gt;</tspan>
<tspan
   x="82"
   y="32"
   id="tspan65">customers</tspan>
,</text>
    <rect
       x="162.5"
       y="416.5"
       width="132"
       height="53"
       stroke-miterlimit="8"
       id="rect69"
       style="fill:#ffffff;stroke:#000000;stroke-width:1.33333004;stroke-miterlimit:8" />
    <text
       font-weight="400"
       font-size="9"
       transform="translate(171.729,430)"
       id="text79"
       style="font-weight:400;font-size:9px;font-family:'Segoe UI', 'Segoe UI_MSFontService', sans-serif">Customer(), <tspan
   x="0"
   y="11"
   id="tspan71">~Customer(),</tspan>
<tspan
   x="0"
   y="22"
   id="tspan73">print(),</tspan>
<tspan
   x="0"
   y="32"
   id="tspan75"
   style="fill:#70ad47">TourReserved</tspan>
<tspan
   x="54.666698"
   y="32"
   id="tspan77"
   style="fill:#70ad47">*</tspan>
</text>
    <path
       d="M 0.315467,-0.948936 2.21334,-0.318002 1.58241,1.57987 -0.315467,0.948936 Z M 4.11121,0.312932 6.00909,0.943867 5.37815,2.84174 3.48028,2.21081 Z M 7.90696,1.5748 9.80483,2.20574 9.1739,4.10361 7.27602,3.47267 Z m 3.79574,1.26187 1.8979,0.63093 -0.631,1.89788 -1.8978,-0.63094 z m 3.7958,1.26187 1.8978,0.63093 -0.6309,1.89788 -1.8979,-0.63094 z m 3.7957,1.26187 1.8979,0.63093 -0.631,1.89787 -1.8978,-0.63093 z m 3.7957,1.26187 1.8979,0.63093 -0.6309,1.89787 -1.8979,-0.63093 z m 3.7958,1.26186 1.8979,0.63094 -0.631,1.89792 -1.8978,-0.63098 z m 3.7957,1.26187 1.8979,0.63094 -0.6309,1.89785 -1.8979,-0.6309 z m 3.7958,1.26189 1.8979,0.6309 -0.631,1.8979 -1.8978,-0.6309 z m 3.7957,1.2618 1.8979,0.631 -0.6309,1.8979 -1.8979,-0.631 z m 3.7958,1.2619 1.8979,0.631 -0.631,1.8978 -1.8979,-0.6309 z m 3.7957,1.2619 1.8979,0.6309 -0.6309,1.8979 -1.8979,-0.6309 z m 3.7958,1.2619 1.8978,0.6309 -0.6309,1.8979 -1.8979,-0.631 z m 3.7957,1.2618 1.8979,0.631 -0.6309,1.8978 -1.8979,-0.6309 z m 3.7958,1.2619 1.8978,0.6309 -0.6309,1.8979 -1.8979,-0.6309 z m 3.7957,1.2619 1.8979,0.6309 -0.6309,1.8979 -1.8979,-0.631 z m 3.7957,1.2618 0.125,0.0416 -0.6309,1.8979 -0.125,-0.0416 z m -0.1938,-3.2259 6.3296,6.3195 -8.8534,1.272 z"
       transform="matrix(1,0,0,-1,235,460.596)"
       id="path81"
       inkscape:connector-curvature="0" />
    <rect
       x="317.5"
       y="416.5"
       width="131"
       height="65"
       stroke-miterlimit="8"
       id="rect83"
       style="fill:#ffffff;stroke:#000000;stroke-width:1.33333004;stroke-miterlimit:8" />
    <text
       font-weight="400"
       font-size="9"
       transform="translate(326.257,430)"
       id="text91"
       style="font-weight:400;font-size:9px;font-family:'Segoe UI', 'Segoe UI_MSFontService', sans-serif">Tour(), ~Tour(),<tspan
   x="0"
   y="11"
   id="tspan85">print(),</tspan>
<tspan
   x="0"
   y="22"
   id="tspan87"
   style="fill:#70ad47">TransportCompany</tspan>
<tspan
   x="37.5"
   y="32"
   id="tspan89"
   style="fill:#70ad47">transportCompany</tspan>
</text>
    <path
       d="m 426.976,468.781 0.437,1.952 -1.951,0.437 -0.438,-1.951 z m 0.874,3.904 0.438,1.951 -1.952,0.437 -0.437,-1.951 z m 0.875,3.903 0.437,1.951 -1.951,0.438 -0.438,-1.952 z m 0.875,3.903 0.437,1.952 -1.952,0.437 -0.437,-1.952 z m 0.874,3.903 0.438,1.952 -1.952,0.437 -0.437,-1.952 z m 0.875,3.903 0.437,1.952 -1.951,0.437 -0.438,-1.951 z m 0.875,3.904 0.437,1.951 -1.952,0.438 -0.437,-1.952 z m 0.874,3.903 0.438,1.951 -1.952,0.438 -0.437,-1.952 z m 0.875,3.903 0.437,1.952 -1.951,0.437 -0.438,-1.952 z m 0.875,3.903 0.437,1.952 -1.952,0.437 -0.437,-1.951 z m 0.874,3.903 0.437,1.952 -1.951,0.437 -0.437,-1.951 z m 0.875,3.904 0.437,1.951 -1.952,0.438 -0.437,-1.952 z m 0.874,3.903 0.438,1.951 -1.952,0.438 -0.437,-1.952 z m 0.875,3.903 0.437,1.952 -1.951,0.437 -0.438,-1.952 z m 0.875,3.903 0.437,1.952 -1.952,0.437 -0.437,-1.951 z m 0.874,3.903 0.438,1.952 -1.952,0.437 -0.437,-1.951 z m 0.875,3.904 0.437,1.951 -1.951,0.438 -0.438,-1.952 z m 0.875,3.903 0.437,1.951 -1.952,0.438 -0.437,-1.952 z m 0.874,3.903 0.438,1.952 -1.952,0.437 -0.437,-1.952 z m 0.875,3.903 0.437,1.952 -1.951,0.437 -0.438,-1.951 z m 0.874,3.903 0.438,1.952 -1.952,0.437 -0.437,-1.951 z m 0.875,3.904 0.437,1.951 -1.951,0.438 -0.438,-1.952 z m 0.875,3.903 0.437,1.951 -1.952,0.438 -0.437,-1.952 z m 0.874,3.903 0.438,1.952 -1.952,0.437 -0.437,-1.952 z m 0.875,3.903 0.437,1.952 -1.951,0.437 -0.438,-1.951 z m 0.875,3.903 0.437,1.952 -1.952,0.437 -0.437,-1.951 z m 0.874,3.904 0.438,1.951 -1.952,0.438 -0.437,-1.952 z m 0.875,3.903 0.437,1.952 -1.951,0.437 -0.438,-1.952 z m 0.875,3.903 0.437,1.952 -1.952,0.437 -0.437,-1.952 z m 0.874,3.903 0.437,1.952 -1.951,0.437 -0.437,-1.951 z m 0.875,3.904 0.437,1.951 -1.951,0.437 -0.438,-1.951 z m 0.874,3.903 0.438,1.951 -1.952,0.438 -0.437,-1.952 z m 0.875,3.903 0.437,1.951 -1.951,0.438 -0.438,-1.952 z m 0.875,3.903 0.437,1.952 -1.952,0.437 -0.437,-1.952 z m 0.874,3.903 0.438,1.952 -1.952,0.437 -0.437,-1.951 z m 0.875,3.904 0.314,1.4 -1.952,0.437 -0.314,-1.4 z m 2.95,-0.557 -2.154,8.681 -5.653,-6.932 z"
       id="path93"
       inkscape:connector-curvature="0" />
    <path
       d="m 0,0 c 25.3399,0 50.6799,19.1715 50.6799,38.3429 0,19.1714 25.3399,38.3429 50.6801,38.3429"
       stroke-miterlimit="10"
       transform="matrix(-4.37114e-8,1,1,4.37114e-8,306.5,286.5)"
       id="path95"
       inkscape:connector-curvature="0"
       style="fill:none;fill-rule:evenodd;stroke:#000000;stroke-linejoin:round;stroke-miterlimit:10;stroke-dasharray:4, 3" />
    <path
       d="M 0,0 C 50.5239,0 101.048,44.5504 101.048,89.1009"
       stroke-miterlimit="10"
       transform="matrix(-1,-8.74228e-8,-8.74228e-8,1,329.548,296.5)"
       id="path97"
       inkscape:connector-curvature="0"
       style="fill:none;fill-rule:evenodd;stroke:#000000;stroke-linejoin:round;stroke-miterlimit:10;stroke-dasharray:4, 3" />
    <path
       d="m 302.5,579.5 h 132 v 33.333 l -6.667,6.667 H 302.5 Z"
       id="path99"
       inkscape:connector-curvature="0"
       style="fill:#ffffff;fill-rule:evenodd" />
    <path
       d="m 427.833,619.5 1.334,-5.333 5.333,-1.334 z"
       id="path101"
       inkscape:connector-curvature="0"
       style="fill:#cdcdcd;fill-rule:evenodd" />
    <path
       d="m 427.833,619.5 1.334,-5.333 5.333,-1.334 -6.667,6.667 H 302.5 v -40 h 132 v 33.333"
       stroke-miterlimit="8"
       id="path103"
       inkscape:connector-curvature="0"
       style="fill:none;fill-rule:evenodd;stroke:#000000;stroke-width:1.33333004;stroke-miterlimit:8" />
    <text
       font-weight="400"
       font-size="9"
       transform="translate(319.308,594)"
       id="text107"
       style="font-weight:400;font-size:9px;font-family:'Segoe UI', 'Segoe UI_MSFontService', sans-serif">Variables common to all <tspan
   x="7.2466698"
   y="11"
   id="tspan105">transport companies</tspan>
</text>
  </g>
</svg>
