<?xml version="1.0" encoding="UTF-8" standalone="no"?>
<svg
   xmlns:dc="http://purl.org/dc/elements/1.1/"
   xmlns:cc="http://creativecommons.org/ns#"
   xmlns:rdf="http://www.w3.org/1999/02/22-rdf-syntax-ns#"
   xmlns:svg="http://www.w3.org/2000/svg"
   xmlns="http://www.w3.org/2000/svg"
   xmlns:sodipodi="http://sodipodi.sourceforge.net/DTD/sodipodi-0.dtd"
   xmlns:inkscape="http://www.inkscape.org/namespaces/inkscape"
   inkscape:version="1.0 (4035a4fb49, 2020-05-01)"
   sodipodi:docname="mind-map.svg"
   id="svg123"
   version="1.1"
   overflow="hidden"
   height="960"
   width="720">
  <metadata
     id="metadata127">
    <rdf:RDF>
      <cc:Work
         rdf:about="">
        <dc:format>image/svg+xml</dc:format>
        <dc:type
           rdf:resource="http://purl.org/dc/dcmitype/StillImage" />
        <dc:title></dc:title>
      </cc:Work>
    </rdf:RDF>
  </metadata>
  <sodipodi:namedview
     inkscape:current-layer="g121"
     inkscape:window-maximized="1"
     inkscape:window-y="-9"
     inkscape:window-x="69"
     inkscape:cy="396.57059"
     inkscape:cx="311.46233"
     inkscape:zoom="0.88712963"
     fit-margin-bottom="-6.3837824e-16"
     fit-margin-right="-6.3837824e-16"
     fit-margin-left="-6.3837824e-16"
     lock-margins="true"
     fit-margin-top="-6.3837824e-16"
     showgrid="false"
     id="namedview125"
     inkscape:window-height="1051"
     inkscape:window-width="1842"
     inkscape:pageshadow="2"
     inkscape:pageopacity="0"
     guidetolerance="10"
     gridtolerance="10"
     objecttolerance="10"
     borderopacity="1"
     bordercolor="#666666"
     pagecolor="#ffffff" />
  <defs
     id="defs5">
    <clipPath
       id="clip0">
      <path
         id="path2"
         clip-rule="evenodd"
         fill-rule="evenodd"
         d="M 0,0 H 720 V 960 H 0 Z" />
    </clipPath>
  </defs>
  <g
     id="g121"
     clip-path="url(#clip0)">
    <rect
       style="stroke-width:0.637766"
       inkscape:export-ydpi="191.80901"
       inkscape:export-xdpi="191.80901"
       id="rect7"
       fill="#ffffff"
       height="608.8468"
       width="461.76221"
       y="173.05077"
       x="139.47852" />
    <rect
       id="rect9"
       fill="#ffffff"
       stroke-miterlimit="8"
       stroke-width="1.33333"
       stroke="#000000"
       height="30"
       width="131"
       y="433.5"
       x="230.5" />
    <text
       id="text11"
       transform="translate(269.861,453)"
       font-weight="400"
       font-family="'Segoe UI', 'Segoe UI_MSFontService', sans-serif">Customer</text>
    <rect
       id="rect13"
       fill="#ffffff"
       stroke-miterlimit="8"
       stroke-width="1.33333"
       stroke="#000000"
       height="30"
       width="132"
       y="426.5"
       x="419.5" />
    <text
       id="text15"
       transform="translate(472.601,446)"
       font-weight="400"
       font-family="'Segoe UI', 'Segoe UI_MSFontService', sans-serif">Tour</text>
    <rect
       id="rect17"
       fill="#ffffff"
       stroke-miterlimit="8"
       stroke-width="1.33333"
       stroke="#000000"
       height="30"
       width="132"
       y="556.5"
       x="302.5" />
    <text
       id="text19"
       transform="translate(317.077,576)"
       font-weight="400"
       font-family="'Segoe UI', 'Segoe UI_MSFontService', sans-serif">TransportCompany</text>
    <rect
       id="rect21"
       fill="#ffffff"
       stroke-miterlimit="8"
       stroke-width="1.33333"
       stroke="#000000"
       height="30"
       width="132"
       y="671.5"
       x="170.5" />
    <text
       id="text23"
       transform="translate(188.695,691)"
       font-weight="400"
       font-family="'Segoe UI', 'Segoe UI_MSFontService', sans-serif">AirplaneCompany</text>
    <rect
       id="rect25"
       fill="#ffffff"
       stroke-miterlimit="8"
       stroke-width="1.33333"
       stroke="#000000"
       height="30"
       width="132"
       y="671.5"
       x="306.5" />
    <text
       id="text27"
       transform="translate(336.917,691)"
       font-weight="400"
       font-family="'Segoe UI', 'Segoe UI_MSFontService', sans-serif">RailCompany</text>
    <rect
       id="rect29"
       fill="#ffffff"
       stroke-miterlimit="8"
       stroke-width="1.33333"
       stroke="#000000"
       height="30"
       width="131"
       y="671.5"
       x="443.5" />
    <text
       id="text31"
       transform="translate(473.848,691)"
       font-weight="400"
       font-family="'Segoe UI', 'Segoe UI_MSFontService', sans-serif">BusCompany</text>
    <path
       id="path33"
       transform="matrix(-1,-8.74228e-8,-8.74228e-8,1,313.398,625)"
       d="M 0.407764,-0.913087 74.7189,32.2726 73.9034,34.0988 -0.407764,0.913087 Z M 74.7248,28.9897 l 5.6736,6.9144 -8.9357,0.3903 z" />
    <path
       id="path35"
       d="m 369,626 0.005,28.165 h -2 L 367,626 Z m 3.005,26.831 -3.999,8.001 -4.001,-8 z" />
    <path
       id="path37"
       d="m 422.397,624.082 76.958,33.259 -0.793,1.836 -76.959,-33.259 z m 76.925,29.976 5.756,6.846 -8.93,0.498 z" />
    <path
       id="path39"
       fill-rule="evenodd"
       fill="none"
       stroke-miterlimit="8"
       stroke-width="0.666667"
       stroke="#000000"
       d="m 520.5,724.5 c 0,2.762 -0.373,5 -0.833,5 H 373.333 c -0.46,0 -0.833,2.239 -0.833,5 0,-2.761 -0.373,-5 -0.833,-5 H 225.333 c -0.46,0 -0.833,-2.238 -0.833,-5" />
    <text
       id="text41"
       transform="translate(253.935,753)"
       font-size="9px"
       font-weight="400"
       font-family="'Segoe UI', 'Segoe UI_MSFontService', sans-serif">These classes have variables that are characteristic to them</text>
    <rect
       id="rect43"
       fill="#ffffff"
       stroke-miterlimit="8"
       stroke-width="1.33333"
       stroke="#000000"
       height="30"
       width="147"
       y="247.5"
       x="315.5" />
    <text
       id="text45"
       transform="translate(352.896,267)"
       font-weight="400"
       font-family="'Segoe UI', 'Segoe UI_MSFontService', sans-serif">TravelAgency</text>
    <rect
       id="rect47"
       fill="#ffffff"
       stroke-miterlimit="8"
       stroke-width="1.33333"
       stroke="#000000"
       height="64"
       width="147"
       y="276.5"
       x="315.5" />
    <text
       id="text71"
       transform="translate(324.231,289)"
       font-size="9px"
       font-weight="400"
       font-family="'Segoe UI', 'Segoe UI_MSFontService', sans-serif">printProfit<tspan
   id="tspan49"
   y="0"
   x="40.333302">(),</tspan><tspan
   id="tspan51"
   y="0"
   x="50.166698">printTours</tspan><tspan
   id="tspan53"
   y="0"
   x="91.333298">(),</tspan><tspan
   id="tspan55"
   y="11"
   x="0">printToursBelowPrice</tspan><tspan
   id="tspan57"
   y="11"
   x="84.166702">(),</tspan><tspan
   id="tspan59"
   y="22"
   x="0">printCustomers</tspan><tspan
   id="tspan61"
   y="22"
   x="61.333302">(),</tspan><tspan
   id="tspan63"
   y="32"
   x="0">vector&lt;Tour&gt;</tspan><tspan
   id="tspan65"
   y="32"
   x="58">tours,</tspan><tspan
   id="tspan67"
   y="43"
   x="0">vector&lt;Customer&gt;</tspan><tspan
   id="tspan69"
   y="43"
   x="78.166702">customers,</tspan></text>
    <rect
       id="rect73"
       fill="#ffffff"
       stroke-miterlimit="8"
       stroke-width="1.33333"
       stroke="#000000"
       height="43"
       width="131"
       y="463.5"
       x="230.5" />
    <text
       id="text87"
       transform="translate(239.238,477)"
       font-size="9px"
       font-weight="400"
       font-family="'Segoe UI', 'Segoe UI_MSFontService', sans-serif">Customer(), <tspan
   id="tspan75"
   y="0"
   x="48.5">print(),</tspan><tspan
   id="tspan77"
   y="11"
   x="0">calculateMoneySpent</tspan><tspan
   id="tspan79"
   y="11"
   x="85.5">(),</tspan><tspan
   id="tspan81"
   y="22"
   x="0"
   fill="#70ad47">Tour*</tspan><tspan
   id="tspan83"
   y="22"
   x="24.8333"
   fill="#70ad47">reservedTour</tspan><tspan
   id="tspan85"
   y="22"
   x="77.166702"
   fill="#70ad47">_</tspan></text>
    <path
       id="path89"
       transform="matrix(1,0,0,-1,325,496.13)"
       d="M 0.257759,-0.966209 2.19018,-0.450691 1.67466,1.48173 -0.257759,0.966209 Z M 4.1226,0.0648283 6.05501,0.580347 5.5395,2.51277 3.60708,1.99725 Z M 7.98743,1.09587 9.91985,1.61138 9.40433,3.5438 7.47191,3.02828 Z M 11.8523,2.1269 13.7847,2.64242 13.2692,4.57484 11.3367,4.05932 Z M 15.7171,3.15794 17.6495,3.67346 17.134,5.60588 15.2016,5.09036 Z M 19.5819,4.18898 21.5144,4.7045 20.9988,6.63692 19.0664,6.1214 Z m 3.8649,1.03104 1.9324,0.51551 -0.5155,1.93242 -1.9324,-0.51552 z m 3.8648,1.03103 1.9324,0.51552 -0.5155,1.93242 -1.9324,-0.51552 z m 3.8648,1.03104 1.9325,0.51552 -0.5156,1.93242 -1.9324,-0.51552 z m 3.8649,1.03104 1.9324,0.51551 -0.5155,1.93246 -1.9324,-0.5156 z m 3.8648,1.03103 1.9324,0.51552 -0.5155,1.93242 -1.9324,-0.5155 z m 3.8649,1.03104 1.9324,0.5155 -0.5155,1.9324 -1.9325,-0.5155 z m 3.8648,1.031 1.9324,0.5156 -0.5155,1.9324 -1.9324,-0.5155 z m 3.8648,1.0311 1.9324,0.5155 -0.5155,1.9324 -1.9324,-0.5155 z m 3.8649,1.031 1.9324,0.5155 -0.5155,1.9324 -1.9325,-0.5155 z m 3.8648,1.031 1.9324,0.5156 -0.5155,1.9324 -1.9324,-0.5155 z m 3.8648,1.0311 1.9325,0.5155 -0.5156,1.9324 -1.9324,-0.5155 z m 3.8649,1.031 1.9324,0.5155 -0.5155,1.9325 -1.9324,-0.5156 z m 3.8648,1.0311 1.9324,0.5155 -0.5155,1.9324 -1.9324,-0.5155 z m 3.8649,1.031 1.9324,0.5155 -0.5156,1.9324 -1.9324,-0.5155 z m 3.8648,1.031 1.9324,0.5156 -0.5155,1.9324 -1.9324,-0.5155 z m 2.449,-2.4515 6.6986,5.9269 -8.7607,1.8027 z" />
    <rect
       id="rect91"
       fill="#ffffff"
       stroke-miterlimit="8"
       stroke-width="1.33333"
       stroke="#000000"
       height="54"
       width="132"
       y="455.5"
       x="419.5" />
    <text
       id="text101"
       transform="translate(428.478,469)"
       font-size="9px"
       font-weight="400"
       font-family="'Segoe UI', 'Segoe UI_MSFontService', sans-serif">Tour(), print(),<tspan
   id="tspan93"
   y="11"
   x="0"
   fill="#70ad47">TransportCompany</tspan><tspan
   id="tspan95"
   y="11"
   x="76.833298"
   fill="#70ad47">&amp;</tspan><tspan
   id="tspan97"
   y="22"
   x="32.5"
   fill="#70ad47">transportCompany</tspan><tspan
   id="tspan99"
   y="22"
   x="107.5"
   fill="#70ad47">_</tspan></text>
    <path
       id="path103"
       transform="matrix(-1,-8.74228e-8,-8.74228e-8,1,502.146,501)"
       d="M 0.80204,-0.597271 1.99658,1.00681 0.392502,2.20135 -0.80204,0.597271 Z M 3.19112,2.61089 4.38566,4.21497 2.78158,5.40951 1.58704,3.80543 Z M 5.58021,5.81905 6.77475,7.42313 5.17067,8.61767 3.97613,7.01359 Z M 7.96929,9.02721 9.16383,10.6313 7.55975,11.8258 6.36521,10.2217 Z m 2.38911,3.20819 1.1945,1.604 -1.60407,1.1946 -1.19454,-1.6041 z m 2.3891,3.2081 1.1945,1.6041 -1.6041,1.1945 -1.1945,-1.604 z m 2.389,3.2082 1.1946,1.6041 -1.6041,1.1945 -1.1945,-1.6041 z m 2.3891,3.2081 1.1946,1.6041 -1.6041,1.1946 -1.1946,-1.6041 z m 2.3891,3.2082 1.1945,1.6041 -1.604,1.1945 -1.1946,-1.6041 z m 2.3891,3.2082 1.1945,1.604 -1.6041,1.1946 -1.1945,-1.6041 z m 2.3891,3.2081 1.1945,1.6041 -1.6041,1.1945 -1.1945,-1.604 z m 2.3891,3.2082 1.1945,1.6041 -1.6041,1.1945 -1.1945,-1.6041 z m 2.389,3.2081 1.1946,1.6041 -1.6041,1.1945 -1.1945,-1.604 z m 2.3891,3.2082 1.1946,1.6041 -1.6041,1.1945 -1.1946,-1.6041 z m 2.3891,3.2081 1.1945,1.6041 -1.604,1.1946 -1.1946,-1.6041 z m 2.3891,3.2082 1.1945,1.6041 -1.6041,1.1945 -1.1945,-1.6041 z m 2.3891,3.2082 1.1945,1.604 -1.6041,1.1946 -1.1945,-1.6041 z m 2.389,3.2081 1.1946,1.6041 -1.6041,1.1945 -1.1945,-1.604 z m 2.3891,3.2082 1.1946,1.6041 -1.6041,1.1945 -1.1946,-1.6041 z m 2.3891,3.2081 1.1946,1.6041 -1.6041,1.1946 -1.1946,-1.6041 z m 2.3891,3.2082 1.1945,1.6041 -1.604,1.1945 -1.1946,-1.604 z m 2.3891,3.2082 1.1945,1.6041 -1.6041,1.1945 -1.1945,-1.6041 z m 2.3891,3.2081 1.1945,1.6041 -1.6041,1.1945 -1.1945,-1.604 z m 2.389,3.2082 1.1946,1.6041 -1.6041,1.1945 -1.1945,-1.6041 z m 3.8248,0.1132 1.57,8.8054 -7.9863,-4.0273 z" />
    <path
       id="path105"
       fill-rule="evenodd"
       fill="none"
       stroke-dasharray="4, 3"
       stroke-miterlimit="10"
       stroke-linejoin="round"
       stroke="#000000"
       d="m 365.5,323.5 c 59.643,0 119.286,51.81 119.286,103.621" />
    <path
       id="path107"
       fill-rule="evenodd"
       fill="none"
       stroke-dasharray="4, 3"
       stroke-miterlimit="10"
       stroke-linejoin="round"
       stroke="#000000"
       d="m 375.061,334.5 c 0,24.612 -19.64,49.223 -39.28,49.223 -19.641,0 -39.281,24.612 -39.281,49.224" />
    <path
       id="path109"
       fill-rule="evenodd"
       fill="#ffffff"
       d="m 302.5,584.5 h 132 v 34.167 l -6.833,6.833 H 302.5 Z" />
    <path
       id="path111"
       fill-rule="evenodd"
       fill="#cdcdcd"
       d="m 427.667,625.5 1.366,-5.467 5.467,-1.366 z" />
    <path
       id="path113"
       fill-rule="evenodd"
       fill="none"
       stroke-miterlimit="8"
       stroke-width="1.33333"
       stroke="#000000"
       d="m 427.667,625.5 1.366,-5.467 5.467,-1.366 -6.833,6.833 H 302.5 v -41 h 132 v 34.167" />
    <text
       id="text119"
       transform="translate(319.308,599)"
       font-size="9px"
       font-weight="400"
       font-family="'Segoe UI', 'Segoe UI_MSFontService', sans-serif">Variables common to all <tspan
   id="tspan115"
   y="11"
   x="7.2466698">transport companies</tspan><tspan
   id="tspan117"
   y="-385"
   x="-46.380199"
   font-size="24px"
   font-weight="300">Relationship of classes</tspan></text>
  </g>
</svg>
